<svg width="120" height="60" viewBox="0 0 120 60" fill="none" xmlns="http://www.w3.org/2000/svg">
<path d="M0 36.0612L1.21212 37.2245L2.42424 5.69388L3.63636 33.7347L4.84848 32.9388L6.06061 12.3673L7.27273 8.32653L8.48485 19.7143L9.69697 55.1633L10.9091 23.2041L12.1212 5.5102L13.3333 37.3469L14.5455 49.1633L15.7576 34.3469L16.9697 23.8776L18.1818 17.2041L19.3939 10.2857L20.6061 28.5918L21.8182 26.2041L23.0303 56.3265L24.2424 49.0408L25.4545 30.6735L26.6667 1.59184L27.8788 14.2653L29.0909 11.6327L30.303 58.0408L31.5152 32.3265L32.7273 25.2857L33.9394 26.8163L35.1515 36.1837L36.3636 41.9388L37.5758 58.8367L38.7879 32.5102L40 2.7551L41.2121 47.6327L42.4242 16.5918L43.6364 60L44.8485 22.2857L46.0606 39.9184L47.2727 58.4082L48.4848 10.4694L49.697 14.1429L50.9091 28.5306L52.1212 26.5102L53.3333 26.6327L54.5455 24.3673L55.7576 8.08163L56.9697 58.9592L58.1818 1.28571L59.3939 19.1633L60.6061 15L61.8182 11.0816L63.0303 40.0408L64.2424 30.1837L65.4545 33.9796L66.6667 16.6531L67.8788 10.4082L69.0909 23.5102L70.303 32.9388L71.5152 36.2449L72.7273 25.6531L73.9394 9.06122L75.1515 6.2449L76.3636 23.7551L77.5758 58.102L78.7879 14.9388L80 18.6735L81.2121 11.6939L82.4242 41.3878L83.6364 0.306123L84.8485 8.63265L86.0606 46.2857L87.2727 3.2449L88.4849 27.3673L89.697 37.7143L90.9091 25.7755L92.1212 14.1429L93.3333 46.2857L94.5455 21.0612L95.7576 9.4898L96.9697 0.673469L98.1818 43.102L99.3939 27.551L100.606 56.1429L101.818 0L103.03 12.3061L104.242 26.6939L105.455 41.2041L106.667 34.8367L107.879 18.1837L109.091 39.551L110.303 42.3061L111.515 50.8163L112.727 35.7551L113.939 4.04082L115.152 42.3673L116.364 32.3265L117.576 40.5306L118.788 26.9388L120 30.4898" stroke="#FF7996"/>
</svg>
